<?xml version="1.0" standalone="no"?>
<svg viewBox="0 0 200 200" xmlns="http://www.w3.org/2000/svg">
  <path fill="#9EF0F0" d="M36.6,-62.7C47.8,-56.8,57.6,-47.9,63.7,-36.9C69.7,-26,72,-13,70.2,-1.1C68.3,10.9,62.4,21.8,58.4,36.2C54.3,50.6,52.2,68.6,42.7,74C33.3,79.4,16.7,72.2,3.1,66.8C-10.4,61.4,-20.9,57.8,-32.9,53.9C-44.8,50,-58.3,45.7,-64.4,36.7C-70.6,27.6,-69.4,13.8,-69.7,-0.2C-70.1,-14.2,-72,-28.4,-66.5,-38.6C-61,-48.8,-48.1,-54.9,-35.8,-60.2C-23.5,-65.5,-11.7,-69.9,0.5,-70.7C12.7,-71.5,25.3,-68.6,36.6,-62.7Z" transform="translate(100 100)" />
</svg>
